<?xml version="1.0" encoding="utf-8"?>
<!-- Generator: Adobe Illustrator 16.0.0, SVG Export Plug-In . SVG Version: 6.00 Build 0)  -->
<!DOCTYPE svg PUBLIC "-//W3C//DTD SVG 1.1//EN" "http://www.w3.org/Graphics/SVG/1.1/DTD/svg11.dtd">
<svg version="1.1" id="Capa_1" xmlns="http://www.w3.org/2000/svg" xmlns:xlink="http://www.w3.org/1999/xlink" x="0px" y="0px"
	 width="512px" height="512px" viewBox="0 0 512 512" enable-background="new 0 0 512 512" xml:space="preserve">
<g>
	<g>
		<path fill="#EFEDEE" d="M177.229,236.31h-68.923c-8.206,0-15.182-2.871-20.926-8.615c-5.741-5.744-8.615-12.718-8.615-20.926
			v-9.841c0-21.745,7.694-40.308,23.081-55.694c15.385-15.381,33.951-23.075,55.694-23.075h19.69c5.333,0,9.946-1.949,13.846-5.845
			c3.897-3.898,5.845-8.512,5.845-13.845V59.08c0-5.333-1.95-9.951-5.845-13.849c-3.898-3.893-8.512-5.846-13.846-5.846h-19.69
			c-21.335,0-41.69,4.158-61.077,12.462C77.077,60.156,60.31,71.388,46.154,85.544C32,99.693,20.771,116.461,12.462,135.848
			C4.155,155.232,0,175.593,0,196.926v216.61c0,16.418,5.741,30.359,17.228,41.852c11.489,11.485,25.44,17.227,41.85,17.227h118.159
			c16.408,0,30.356-5.742,41.845-17.227c11.485-11.492,17.229-25.434,17.229-41.852V295.388c0-16.416-5.744-30.356-17.237-41.85
			C207.59,242.054,193.637,236.31,177.229,236.31z"/>
		<path fill="#EFEDEE" d="M494.779,253.538c-11.484-11.484-25.433-17.229-41.846-17.229h-68.922c-8.201,0-15.184-2.871-20.919-8.615
			c-5.746-5.744-8.615-12.718-8.615-20.926v-9.842c0-21.745,7.694-40.307,23.073-55.693c15.38-15.381,33.944-23.075,55.698-23.075
			h19.687c5.333,0,9.95-1.949,13.846-5.845c3.894-3.898,5.85-8.512,5.85-13.845V59.08c0-5.333-1.954-9.951-5.85-13.849
			c-3.895-3.893-8.512-5.846-13.846-5.846h-19.687c-21.348,0-41.698,4.158-61.091,12.462c-19.381,8.309-36.143,19.541-50.299,33.697
			c-14.155,14.149-25.389,30.917-33.693,50.304c-8.307,19.385-12.467,39.745-12.467,61.078v216.61
			c0,16.418,5.746,30.359,17.23,41.852c11.485,11.485,25.434,17.227,41.846,17.227h118.152c16.412,0,30.36-5.742,41.844-17.227
			c11.493-11.492,17.228-25.434,17.228-41.852V295.388C512,278.971,506.265,265.031,494.779,253.538z"/>
	</g>
</g>
</svg>
