<?xml version="1.0" encoding="iso-8859-1"?>
<!-- Generator: Adobe Illustrator 19.0.0, SVG Export Plug-In . SVG Version: 6.00 Build 0)  -->
<svg xmlns="http://www.w3.org/2000/svg" xmlns:xlink="http://www.w3.org/1999/xlink" version="1.1" id="Layer_1" x="0px" y="0px" viewBox="0 0 511.999 511.999" style="enable-background:new 0 0 511.999 511.999;" xml:space="preserve" width="512px" height="512px">
<g>
	<g>
		<path d="M342.029,47.841H302.46v-1.381C302.46,20.843,281.617,0,256,0s-46.461,20.843-46.461,46.461v1.381h-39.57    c-45.382,0-82.889,34.337-87.921,78.394h347.903C424.918,82.179,387.411,47.841,342.029,47.841z" fill="#4e98ae"/>
	</g>
</g>
<g>
	<g>
		<path d="M132.368,433.909l-7.415-4.652l-7.415,4.652c-2.739,1.719-26.763,17.553-26.763,43.913    c0,18.845,15.332,34.177,34.178,34.177s34.178-15.332,34.178-34.177C159.131,451.462,135.107,435.628,132.368,433.909z" fill="#4e98ae"/>
	</g>
</g>
<g>
	<g>
		<path d="M219.732,433.909l-7.415-4.652l-7.415,4.652c-2.739,1.719-26.763,17.553-26.763,43.913    c0,18.845,15.332,34.177,34.178,34.177c18.846,0,34.178-15.332,34.178-34.177C246.495,451.462,222.471,435.628,219.732,433.909z" fill="#4e98ae"/>
	</g>
</g>
<g>
	<g>
		<path d="M307.096,433.909l-7.415-4.652l-7.415,4.652c-2.739,1.719-26.762,17.553-26.762,43.913    c0,18.845,15.332,34.177,34.178,34.177c18.846,0,34.178-15.332,34.178-34.177C333.859,451.462,309.836,435.628,307.096,433.909z" fill="#4e98ae"/>
	</g>
</g>
<g>
	<g>
		<path d="M394.46,433.909l-7.415-4.652l-7.415,4.652c-2.739,1.719-26.763,17.553-26.763,43.913    c0,18.845,15.332,34.177,34.178,34.177c18.846,0,34.178-15.332,34.178-34.177C421.224,451.462,397.2,435.628,394.46,433.909z" fill="#4e98ae"/>
	</g>
</g>
<g>
	<g>
		<path d="M444.637,156.896h-44.766H112.127H67.362c-20.856,0-37.824,16.967-37.824,37.823c0,20.856,16.967,37.825,37.824,37.825    h14.106V354.58c0,34.638,28.18,62.818,62.818,62.818h223.427c34.638,0,62.818-28.18,62.818-62.818V232.542h14.106    c20.856,0,37.824-16.967,37.824-37.823C482.46,173.863,465.493,156.896,444.637,156.896z" fill="#4e98ae"/>
	</g>
</g>
<g>
</g>
<g>
</g>
<g>
</g>
<g>
</g>
<g>
</g>
<g>
</g>
<g>
</g>
<g>
</g>
<g>
</g>
<g>
</g>
<g>
</g>
<g>
</g>
<g>
</g>
<g>
</g>
<g>
</g>
</svg>
